<?xml version="1.0" encoding="utf-8"?>
<!-- Generator: Adobe Illustrator 24.3.0, SVG Export Plug-In . SVG Version: 6.00 Build 0)  -->
<svg version="1.1" id="Layer_1" xmlns="http://www.w3.org/2000/svg" xmlns:xlink="http://www.w3.org/1999/xlink" x="0px" y="0px"
	 viewBox="0 0 2601.2 2437.7" style="enable-background:new 0 0 2601.2 2437.7;" xml:space="preserve">
<style type="text/css">
	.st0{fill:#00EDF9;}
	.st1{opacity:0.3;fill:#000072;enable-background:new    ;}
	.st2{fill:#000072;}
	.st3{fill:#FDD835;}
	.st4{opacity:0.6;}
	.st5{fill:#FFFFFF;}
	.st6{opacity:0.2;}
	.st7{fill:#E67E22;}
	.st8{opacity:0.5;}
	.st9{opacity:0.3;}
	.st10{clip-path:url(#SVGID_2_);}
	.st11{opacity:0.5;fill:#FFFFFF;enable-background:new    ;}
	.st12{opacity:0.1;}
	.st13{fill:#FF5722;}
</style>
<g>
	<g>
		<g>
			<path class="st0" d="M2120.8,2309.8c293.1-238.5,480.4-602,480.4-1009.3C2601.2,582.3,2018.9,0,1300.6,0S0,582.3,0,1300.6
				c0,407.3,187.3,770.8,480.4,1009.3c236.1-5.8,517.8-9.1,820.2-9.1S1884.7,2304.1,2120.8,2309.8z"/>
		</g>
		<path class="st1" d="M2597.5,2357.5c0-31.4-580.7-56.8-1297-56.8s-1297,25.4-1297,56.8c0,18.1,194,34.3,496.2,44.7
			c65.2,20.3,317.9,35.5,619.8,35.5c252.8,0,471.1-10.6,573.7-26C2217.6,2404.4,2597.5,2382.9,2597.5,2357.5z"/>
		<g>
			<path class="st2" d="M123.7,2313.5c24.5-5,49-7.6,73.6-9.7c24.5-2.1,49-2.8,73.6-3.4c49-1.3,98.1-0.6,147.1,0.1l73.6,0.6l73.6,0
				h147.1h588.5H1889h294.2l73.6,0c24.5,0,49-0.8,73.6-1.2c24.5-0.4,49,0.2,73.6,1.8c12.3,0.9,24.5,2.1,36.8,4.1
				c12.3,1.9,24.5,4.1,36.8,7.8c3.4,1,5.4,4.6,4.4,8c-0.6,2.2-2.4,3.7-4.4,4.4c-12.3,3.6-24.5,5.9-36.8,7.8
				c-12.3,2-24.5,3.2-36.8,4.1c-24.5,1.6-49,2.2-73.6,1.8c-24.5-0.4-49-1.2-73.6-1.2l-73.6,0H1889h-588.5H712.1H565l-73.6,0
				l-73.6,0.6c-49,0.7-98.1,1.4-147.1,0.1c-24.5-0.6-49-1.3-73.6-3.4c-24.5-2.1-49-4.6-73.6-9.7c-3.4-0.7-5.6-4-4.9-7.5
				C119.3,2315.8,121.3,2314,123.7,2313.5z"/>
		</g>
		<g>
			<g>
				<g>
					<g>
						<g>
							<path class="st3" d="M1884.7,719h73.9c47.6,0,94.8,11.6,136.2,35.2c63.3,36.1,134.1,107.9,134.1,247.9v166.5
								c0,0,7.2,358.2-358.2,358.2h-108.7l85.6-172.1c0,0,142.6,31.8,206.1-105.3c10.9-23.6,16-49.5,16-75.5v-162.3
								c0-27.7-5.7-55.3-18.1-80c-14.5-28.9-39.8-59.7-83.2-66.9h-83.6V719z"/>
						</g>
						<g>
							<path class="st2" d="M1870.6,1546.8h-108.7c-6.9,0-13.4-3.6-17-9.5s-4-13.2-0.9-19.4l85.6-172.1c4.1-8.2,13.3-12.6,22.3-10.6
								c5.1,1.1,127.8,26.2,183.6-94.1c9.4-20.3,14.2-42.9,14.2-67.1v-162.3c0-25.6-5.5-50.2-16-71.1
								c-15.9-31.8-38.5-50.6-67.1-55.9h-81.9c-11,0-20-9-20-20V719c0-11,9-20,20-20h73.9c52.2,0,102.8,13.1,146.1,37.8
								c65.8,37.6,144.2,114.1,144.2,265.3v166.5c0.1,6.3,2.1,166.4-106.6,277.3C2076.6,1512.8,1985.2,1546.8,1870.6,1546.8z
								 M1794.2,1506.8h76.4c103.3,0,185-29.9,242.9-88.8c96.9-98.6,95.4-247.6,95.4-249.1v-166.8c0-132-67.4-198.2-124-230.5
								c-37.3-21.3-81-32.6-126.3-32.6h-53.9v105.6h63.6c1.1,0,2.2,0.1,3.3,0.3c42.1,7,75.9,33.9,97.8,77.7
								c13.2,26.4,20.2,57.2,20.2,89v162.3c0,30.1-6,58.4-17.9,84c-56.4,121.7-170.8,122.8-212.7,118.6L1794.2,1506.8z"/>
						</g>
					</g>
					<g class="st4">
						<path class="st5" d="M1852,1390.5l7-14c22.2,2.2,64.9,2.9,108.4-15C1925.8,1386.8,1881.3,1391.1,1852,1390.5z"/>
					</g>
					<g class="st4">
						<path class="st5" d="M2187.6,1185.1v-166.5c0-133.7-68.4-200.8-125.8-233.6c-37.8-21.6-82.1-33-128-33h-29.2v-13h53.9
							c45.3,0,89,11.3,126.3,32.6c56.6,32.3,124,98.5,124,230.5v166.5c0,1.9,1.5,150.9-95.4,249.5c-8.9,9.1-18.4,17.3-28.4,25
							c2.1-2,4.2-4,6.2-6.1C2189.2,1337.2,2187.7,1186.9,2187.6,1185.1z"/>
					</g>
					<g class="st6">
						<path class="st2" d="M2042.3,1249.4c10.1-23.6,14.7-49.5,14.7-75.5v-162.3c0-27.7-5.2-55.3-16.6-80
							c-13.3-28.9-36.6-59.7-76.4-66.9h56.8c39.9,7.2,63.1,38,76.4,66.9c11.4,24.8,16.6,52.3,16.6,80v162.3c0,26-4.7,51.9-14.7,75.5
							c-51.7,121.5-160.4,110.3-184.5,106.2C1956.6,1348.9,2010.3,1324.5,2042.3,1249.4z"/>
					</g>
					<g class="st6">
						<polygon class="st2" points="1891.7,864.6 1891.7,719 1973.6,719 1957.1,864.6 						"/>
					</g>
					<g class="st6">
						<path class="st2" d="M2228.8,1168.6V1114c-0.3,33-11.4,317.5-299.4,351.7c-22.6,2.7-39.2-20.5-29.2-40.9l33.8-68.4
							c-43.9,4.1-64.4-1.7-64.4-1.7l-71.7,114.4h-7.4l-28.7,57.7h88.1h20.6C2236.1,1526.8,2228.8,1168.6,2228.8,1168.6z"/>
					</g>
					<g>
						<g>
							<path class="st3" d="M716.5,719h-73.9c-47.7,0-94.8,11.6-136.2,35.2c-63.3,36.1-134.1,107.9-134.1,247.9v166.5
								c0,0-7.2,358.2,358.2,358.2h108.7l-85.6-172.1c0,0-142.6,31.8-206.1-105.3c-10.9-23.6-16-49.5-16-75.5v-162.3
								c0-27.7,5.7-55.3,18.1-80c14.5-28.9,39.8-59.7,83.2-66.9h83.7V719z"/>
						</g>
						<g>
							<path class="st2" d="M839.3,1546.8H730.5c-114.6,0-206-34-271.7-101c-108.7-110.9-106.7-270.9-106.6-277.7v-166.1
								c0-151.2,78.4-227.7,144.2-265.3c43.3-24.7,93.9-37.8,146.1-37.8h73.9c11,0,20,9,20,20v145.6c0,11-9,20-20,20h-81.9
								c-28.6,5.3-51.2,24.1-67.1,55.9c-10.5,20.9-16,45.5-16,71.1v162.3c0,24.3,4.8,46.9,14.2,67.1
								c55.8,120.3,178.5,95.3,183.7,94.1c9-1.9,18.1,2.4,22.2,10.6l85.6,172.1c3.1,6.2,2.7,13.6-0.9,19.4
								S846.2,1546.8,839.3,1546.8z M642.6,739c-45.3,0-89,11.3-126.3,32.6c-56.6,32.3-124,98.5-124,230.5v166.5
								c0,1.9-1.5,150.9,95.4,249.5c57.9,58.9,139.6,88.8,242.9,88.8H807l-64.8-130.4c-42,4.1-156.3,3.1-212.7-118.6
								c-11.9-25.6-17.9-53.8-17.9-83.9v-162.3c0-31.8,7-62.6,20.2-89c21.9-43.8,55.7-70.7,97.8-77.7c1.1-0.2,2.2-0.3,3.3-0.3h63.7
								V739L642.6,739L642.6,739z"/>
						</g>
					</g>
					<g class="st4">
						<path class="st5" d="M749.1,1390.5l-7-14c-22.2,2.2-64.9,2.9-108.4-15C675.4,1386.8,719.8,1391.1,749.1,1390.5z"/>
					</g>
					<g class="st4">
						<path class="st5" d="M413.5,1185.1v-166.5c0-133.7,68.4-200.8,125.8-233.6c37.8-21.6,82.1-33,128-33h29.2v-13h-53.9
							c-45.3,0-89,11.3-126.3,32.6c-56.6,32.3-124,98.5-124,230.5v166.5c0,1.9-1.5,150.9,95.4,249.5c8.9,9.1,18.4,17.3,28.4,25
							c-2.1-2-4.2-4-6.2-6.1C411.9,1337.2,413.5,1186.9,413.5,1185.1z"/>
					</g>
					<g class="st6">
						<path class="st2" d="M558.9,1249.4c-10.1-23.6-14.7-49.5-14.7-75.5v-162.3c0-27.7,5.2-55.3,16.6-80
							c13.3-28.9,36.6-59.7,76.4-66.9h-56.8c-39.9,7.2-63.2,38-76.4,66.9c-11.4,24.8-16.6,52.3-16.6,80v162.3
							c0,26,4.7,51.9,14.7,75.5c51.7,121.5,160.4,110.3,184.5,106.2C644.5,1348.9,590.8,1324.5,558.9,1249.4z"/>
					</g>
					<g class="st6">
						<polygon class="st2" points="709.5,864.6 709.5,719 627.5,719 644,864.6 						"/>
					</g>
					<g class="st6">
						<path class="st2" d="M372.3,1168.6V1114c0.3,33,11.4,317.5,299.4,351.7c22.6,2.7,39.2-20.5,29.2-40.9l-33.8-68.4
							c43.9,4.1,64.4-1.7,64.4-1.7l71.7,114.4h7.4l28.7,57.7h-88.1h-20.6C365.1,1526.8,372.3,1168.6,372.3,1168.6z"/>
					</g>
					<g>
						<g>
							<polygon class="st3" points="1457.2,1920.5 1143.9,1920.5 1207.9,1677.5 1393.3,1677.5 							"/>
						</g>
						<g>
							<path class="st2" d="M1457.2,1940.5h-313.3c-6.2,0-12.1-2.9-15.8-7.8c-3.8-4.9-5.1-11.3-3.5-17.3l63.9-242.9
								c2.3-8.8,10.2-14.9,19.3-14.9h185.4c9.1,0,17,6.1,19.3,14.9l63.9,242.9c1.6,6,0.3,12.4-3.5,17.3S1463.4,1940.5,1457.2,1940.5
								z M1169.9,1900.5h261.4l-53.4-202.9h-154.6L1169.9,1900.5z"/>
						</g>
					</g>
					<g class="st4">
						<polygon class="st5" points="1169.9,1900.5 1211.6,1900.5 1265,1697.5 1223.3,1697.5 						"/>
					</g>
					<g>
						<g>
							<path class="st3" d="M1564.7,2035.5h-528.2v-34.9c0-44.3,35.9-80.2,80.2-80.2h367.8c44.3,0,80.2,35.9,80.2,80.2
								L1564.7,2035.5L1564.7,2035.5z"/>
						</g>
						<g>
							<path class="st2" d="M1564.7,2055.5h-528.2c-11,0-20-9-20-20v-34.9c0-55.3,45-100.2,100.2-100.2h367.8
								c55.2,0,100.2,44.9,100.2,100.2v34.9C1584.7,2046.6,1575.7,2055.5,1564.7,2055.5z M1056.5,2015.5h488.2v-14.9
								c0-33.2-27-60.2-60.2-60.2h-367.8c-33.2,0-60.2,27-60.2,60.2L1056.5,2015.5L1056.5,2015.5z"/>
						</g>
					</g>
					<g class="st6">
						<path class="st2" d="M1447.4,1920.5h-103c44.3,0,80.2,35.9,80.2,80.2v34.9h103v-34.9
							C1527.6,1956.4,1491.7,1920.5,1447.4,1920.5z"/>
					</g>
					<g class="st4">
						<path class="st5" d="M1094.2,2013c0-35.1,28.6-63.7,63.7-63.7c0,0,143.2-5.2,240.1-8.9h-281.3c-33.2,0-60.2,27-60.2,60.2v14.9
							h37.7V2013L1094.2,2013z"/>
					</g>
					<g>
						<g>
							<path class="st7" d="M1810.4,2316.8H790.7V2213c0-98,79.4-177.4,177.4-177.4H1633c98,0,177.4,79.4,177.4,177.4L1810.4,2316.8
								L1810.4,2316.8z"/>
						</g>
						<g>
							<path class="st2" d="M1810.4,2336.8H790.7c-11,0-20-9-20-20V2213c0-108.9,88.6-197.4,197.4-197.4H1633
								c108.9,0,197.4,88.6,197.4,197.4v103.9C1830.4,2327.9,1821.5,2336.8,1810.4,2336.8z M810.7,2296.8h979.7V2213
								c0-86.8-70.6-157.4-157.4-157.4H968.1c-86.8,0-157.4,70.6-157.4,157.4L810.7,2296.8L810.7,2296.8z"/>
						</g>
					</g>
					<g class="st8">
						<path class="st5" d="M852.5,2229.4c0-88.7,72.2-160.9,160.9-160.9c0,0,319.1-8.1,499.6-13h-545
							c-86.8,0-157.4,70.6-157.4,157.4v83.9h41.8L852.5,2229.4L852.5,2229.4z"/>
					</g>
					<g class="st6">
						<path class="st2" d="M1399.1,1819.6l-35.4-142.1h-68.5h-87.3l-36,136.9c38,7.6,79.1,12,123.4,12.5c1.4,0.2,2.8,0.1,4.2,0.1
							l1.1,0l1.2,0c0.7,0,1.4,0,2.1,0s1.4,0,2.1-0.1c0.1,0,0.2,0,0.3,0c15.3-0.2,28.7,10,32.4,24.8l17.1,68.8h68.5L1399.1,1819.6z"
							/>
					</g>
					<g>
						<g>
							<path class="st3" d="M1303.8,425.4L1303.8,425.4h-3.3l-3.3,0v0L708,426.3v696c0,124.4,29.8,247.6,90.4,356.3
								c80.1,143.6,228.4,292.4,498.9,294.8v0.1c1.1,0,2.2-0.1,3.3-0.1c1.1,0,2.2,0.1,3.3,0.1v-0.1
								c270.5-2.4,418.8-151.2,498.9-294.8c60.6-108.7,90.4-231.8,90.4-356.3v-696L1303.8,425.4z"/>
						</g>
						<g>
							<path class="st2" d="M1303.8,1793.4c-0.7,0-1.5,0-2.2,0l-1.2,0l-1,0c-1.5,0-3,0.1-4.5-0.1c-286-3.3-437.4-167.6-514-305
								c-60.8-109-92.9-235.6-92.9-366v-696c0-11,8.9-20,20-20l595.8-0.9c0,0,0,0,0.1,0l589.3,0.9c11,0,20,9,20,20v696
								c0,130.4-32.1,257-92.9,366c-76.7,137.4-228,301.7-514,305C1305.4,1793.4,1304.6,1793.4,1303.8,1793.4z M1300.5,1753.3l1.6,0
								c0.5-0.1,1.1-0.1,1.6-0.1c215.3-1.9,377.3-97.6,481.6-284.5c57.5-103.1,87.9-222.9,87.9-346.5v-676l-575.8-0.8L728,446.2v676
								c0,123.6,30.4,243.5,87.9,346.5c104.3,186.9,266.3,282.6,481.6,284.5c0.6,0,1.1,0,1.6,0.1L1300.5,1753.3z"/>
						</g>
					</g>
					<g class="st9">
						<path class="st5" d="M1027,1179.6h-82.8c-32.4,0-58.6-26.2-58.6-58.6V808.2c0-32.4,26.2-58.6,58.6-58.6h82.8
							c32.4,0,58.6,26.2,58.6,58.6V1121C1085.6,1153.4,1059.3,1179.6,1027,1179.6z"/>
					</g>
					<g class="st6">
						<path class="st2" d="M1303.8,425.4L1303.8,425.4h-3.3l-3.3,0v0l-79.2,0.1l510.1,0.8v203.2c-207.1-0.5-1021.6-2.2-1018.8,0.7
							v29.9l866.9,48.4c85.3,4.8,152,75.3,152,160.7v253c0,124.4-29.8,247.6-90.4,356.3c-71.9,128.9-198.8,261.9-419.6,289.5
							c25.2,3.1,51.5,5,79.2,5.2v0.1c1.1,0,2.2-0.1,3.3-0.1c1.1,0,2.2,0.1,3.3,0.1v-0.1c270.5-2.4,418.8-151.2,498.9-294.8
							c60.6-108.7,90.4-231.8,90.4-356.3v-696L1303.8,425.4z"/>
					</g>
					<g class="st4">
						<path class="st5" d="M1268.6,1752.4c-224.9-25.9-349-164.3-414.6-281.9c-57.8-103.6-88.3-224-88.3-348.2v-61.9
							c13.5-18.2,22.5-52.1,22.5-90.9c0-38.8-9.1-72.7-22.5-90.9V446.2l-37.7,0.1v676c0,123.6,30.4,243.5,87.9,346.5
							C915.5,1647.2,1067.7,1742.5,1268.6,1752.4z"/>
					</g>
					<g>
						<g>
							<path class="st3" d="M1900.9,616.9H700.2c-54.9,0-99.4-44.5-99.4-99.4l0,0c0-54.9,44.5-99.4,99.4-99.4h1200.7
								c54.9,0,99.4,44.5,99.4,99.4l0,0C2000.4,572.4,1955.8,616.9,1900.9,616.9z"/>
						</g>
						<g>
							<path class="st2" d="M1900.9,636.9H700.2c-65.9,0-119.4-53.6-119.4-119.4S634.4,398,700.2,398h1200.7
								c65.9,0,119.4,53.6,119.4,119.4S1966.8,636.9,1900.9,636.9z M700.2,438c-43.8,0-79.4,35.6-79.4,79.4s35.6,79.4,79.4,79.4
								h1200.7c43.8,0,79.4-35.6,79.4-79.4s-35.6-79.4-79.4-79.4L700.2,438L700.2,438z"/>
						</g>
					</g>
					<g class="st4">
						<path class="st5" d="M645.8,542.5c0-43.8,35.6-79.4,79.4-79.4h1200.7c15.5,0,29.9,4.5,42.2,12.2
							c-14.1-22.3-38.9-37.2-67.2-37.2H700.2c-43.8,0-79.4,35.6-79.4,79.4c0,28.3,14.9,53.1,37.2,67.2
							C650.3,572.4,645.8,558,645.8,542.5z"/>
					</g>
					<g>
						<g>
							<defs>
								<path id="SVGID_1_" d="M1900.9,438H700.2c-43.8,0-79.4,35.6-79.4,79.4s35.6,79.4,79.4,79.4h1200.7
									c43.8,0,79.4-35.6,79.4-79.4S1944.7,438,1900.9,438z"/>
							</defs>
							<clipPath id="SVGID_2_">
								<use xlink:href="#SVGID_1_"  style="overflow:visible;"/>
							</clipPath>
							<g class="st10">
								
									<rect x="711.5" y="431.8" transform="matrix(0.6565 -0.7544 0.7544 0.6565 -58.3606 912.9423)" class="st11" width="523.4" height="177.5"/>
								
									<rect x="1030.2" y="459" transform="matrix(0.6565 -0.7544 0.7544 0.6565 67.9725 1145.7451)" class="st11" width="523.4" height="78.6"/>
							</g>
						</g>
					</g>
					<g class="st6">
						<path class="st2" d="M650.6,589.6c0,0,7.9,8.6,21.3,23.1c9,2.7,18.5,4.2,28.4,4.2h1200.7c54.9,0,99.4-44.5,99.4-99.4l0,0
							c0-46.1-31.5-84.8-74.1-96.1l-224.6-1C1701.6,420.4,1685.6,654.6,650.6,589.6z"/>
					</g>
					<g class="st6">
						<path class="st2" d="M800.6,2289.6l-3.6,27.2h1013.5V2213c0-98-79.4-177.4-177.4-177.4h-16.5l-150.9,14.1
							C1465.6,2049.6,1580.6,2309.6,800.6,2289.6z"/>
					</g>
					<g class="st12">
						<path class="st5" d="M1165.8,2209.6h-155.5c-16.4,0-29.8-13.3-29.8-29.8v-20.5c0-16.4,13.3-29.8,29.8-29.8h155.5
							c16.4,0,29.8,13.3,29.8,29.8v20.5C1195.6,2196.3,1182.2,2209.6,1165.8,2209.6z"/>
					</g>
					<g>
						<g>
							<g>
								<circle class="st2" cx="1040" cy="1024.4" r="109.4"/>
							</g>
							<g>
								<g>
									
										<ellipse transform="matrix(0.8665 -0.4992 0.4992 0.8665 -353.7573 666.3777)" class="st5" cx="1068.9" cy="994.5" rx="31.7" ry="44.1"/>
								</g>
								<g>
									
										<ellipse transform="matrix(0.9422 -0.3349 0.3349 0.9422 -301.7379 396.6018)" class="st5" cx="999.1" cy="1073.2" rx="15" ry="20.9"/>
								</g>
							</g>
						</g>
						<g>
							<g>
								<circle class="st2" cx="1561.1" cy="1024.4" r="109.4"/>
							</g>
							<g>
								<g>
									
										<ellipse transform="matrix(0.8665 -0.4992 0.4992 0.8665 -284.1929 926.5135)" class="st5" cx="1590" cy="994.6" rx="31.7" ry="44.1"/>
								</g>
								<g>
									
										<ellipse transform="matrix(0.9422 -0.3349 0.3349 0.9422 -271.6496 571.1167)" class="st5" cx="1520.2" cy="1073.2" rx="15" ry="20.9"/>
								</g>
							</g>
						</g>
						<g>
							<path class="st2" d="M1300.6,1176.7h-83.5c-31.9,0-53.4,33.3-39.6,62.1c19.2,40.2,55.8,85,123.1,85
								c67.3,0,103.9-44.9,123.1-85c13.8-28.8-7.7-62.1-39.6-62.1H1300.6z"/>
						</g>
						<g class="st8">
							<g>
								<g>
									<ellipse class="st13" cx="998.3" cy="1235.4" rx="81.2" ry="34.8"/>
								</g>
							</g>
							<g>
								<g>
									<ellipse class="st13" cx="1602.9" cy="1235.4" rx="81.2" ry="34.8"/>
								</g>
							</g>
						</g>
						<g>
							<g>
								<path class="st13" d="M1241.3,1280.2c14.1,13.9,33.4,24.1,59.8,24.1c27.5,0,47.4-11.1,61.6-25.9
									C1298.6,1235.5,1253.8,1268.7,1241.3,1280.2z"/>
							</g>
						</g>
						<g class="st8">
							<path class="st5" d="M1269.4,1276c12-7.8,32.2-15.9,58.4-8.9c-40.9-16.2-69.2,4.9-78,13c8.1,7.9,18.3,14.4,31.1,17.6
								c-4.3-1.8-8.2-4-11.8-6.5C1263.8,1287.4,1263.9,1279.5,1269.4,1276z"/>
						</g>
					</g>
				</g>
			</g>
		</g>
	</g>
</g>
</svg>
