{
    "asset" : {
        "generator" : "Khronos glTF Blender I/O v1.7.33",
        "version" : "2.0"
    },
    "extensionsUsed" : [
        "KHR_texture_transform"
    ],
    "extensionsRequired" : [
        "KHR_texture_transform"
    ],
    "scene" : 0,
    "scenes" : [
        {
            "name" : "Scene",
            "nodes" : [
                0
            ]
        }
    ],
    "nodes" : [
        {
            "mesh" : 0,
            "name" : "Building4q2_1",
            "rotation" : [
                0.7071068286895752,
                0,
                0,
                0.7071067094802856
            ],
            "scale" : [
                0.009999999776482582,
                0.009999999776482582,
                0.009999999776482582
            ],
            "translation" : [
                0.8391697406768799,
                3.018152952194214,
                -0.4589274227619171
            ]
        }
    ],
    "materials" : [
        {
            "doubleSided" : true,
            "name" : "Building4q2",
            "pbrMetallicRoughness" : {
                "baseColorTexture" : {
                    "extensions" : {
                        "KHR_texture_transform" : {
                            "offset" : [
                                0,
                                -1
                            ]
                        }
                    },
                    "index" : 0
                },
                "metallicFactor" : 0,
                "roughnessFactor" : 0.5527864098548889
            }
        }
    ],
    "meshes" : [
        {
            "name" : "Mesh",
            "primitives" : [
                {
                    "attributes" : {
                        "POSITION" : 0,
                        "NORMAL" : 1,
                        "TEXCOORD_0" : 2
                    },
                    "indices" : 3,
                    "material" : 0
                }
            ]
        }
    ],
    "textures" : [
        {
            "sampler" : 0,
            "source" : 0
        }
    ],
    "images" : [
        {
            "bufferView" : 4,
            "mimeType" : "image/png",
            "name" : "Building4q2Surface_Color"
        }
    ],
    "accessors" : [
        {
            "bufferView" : 0,
            "componentType" : 5126,
            "count" : 1012,
            "max" : [
                150.42144775390625,
                286.85675048828125,
                303.2387390136719
            ],
            "min" : [
                -307.1813659667969,
                -182.4080352783203,
                -244.1226806640625
            ],
            "type" : "VEC3"
        },
        {
            "bufferView" : 1,
            "componentType" : 5126,
            "count" : 1012,
            "type" : "VEC3"
        },
        {
            "bufferView" : 2,
            "componentType" : 5126,
            "count" : 1012,
            "type" : "VEC2"
        },
        {
            "bufferView" : 3,
            "componentType" : 5123,
            "count" : 1650,
            "type" : "SCALAR"
        }
    ],
    "bufferViews" : [
        {
            "buffer" : 0,
            "byteLength" : 12144,
            "byteOffset" : 0
        },
        {
            "buffer" : 0,
            "byteLength" : 12144,
            "byteOffset" : 12144
        },
        {
            "buffer" : 0,
            "byteLength" : 8096,
            "byteOffset" : 24288
        },
        {
            "buffer" : 0,
            "byteLength" : 3300,
            "byteOffset" : 32384
        },
        {
            "buffer" : 0,
            "byteLength" : 215864,
            "byteOffset" : 35684
        }
    ],
    "samplers" : [
        {
            "magFilter" : 9729,
            "minFilter" : 9987
        }
    ],
    "buffers" : [
        {
            "byteLength" : 251548,
            "uri" : "data:application/octet-stream;base64,"
        }
    ]
}
